<?xml version="1.0" encoding="utf-8"?>
<!-- Generator: Adobe Illustrator 16.0.0, SVG Export Plug-In . SVG Version: 6.00 Build 0)  -->
<!DOCTYPE svg PUBLIC "-//W3C//DTD SVG 1.1//EN" "http://www.w3.org/Graphics/SVG/1.1/DTD/svg11.dtd">
<svg version="1.1" id="Layer_1" xmlns="http://www.w3.org/2000/svg" xmlns:xlink="http://www.w3.org/1999/xlink" x="0px" y="0px"
	 width="15.656px" height="15.594px" viewBox="0 0 15.656 15.594" enable-background="new 0 0 15.656 15.594" xml:space="preserve">
<g>
	<path fill="#FF0066" d="M9.785,7.341c-0.208,0-0.369,0.06-0.483,0.178C9.188,7.636,9.116,7.796,9.087,7.996h1.393
		c-0.013-0.215-0.086-0.376-0.214-0.488C10.136,7.397,9.975,7.341,9.785,7.341z"/>
	<path fill="#FF0066" d="M6.834,8.078c-0.1-0.045-0.24-0.068-0.419-0.07H5.386v1.114H6.4c0.182,0,0.324-0.024,0.424-0.073
		c0.184-0.091,0.274-0.264,0.274-0.521C7.099,8.31,7.01,8.16,6.834,8.078L6.834,8.078z"/>
	<path fill="#FF0066" d="M6.845,7.213c0.113-0.07,0.171-0.192,0.171-0.368c0-0.195-0.075-0.324-0.225-0.387
		C6.662,6.416,6.496,6.394,6.297,6.394H5.386v0.924h1.018C6.583,7.317,6.731,7.281,6.845,7.213L6.845,7.213z"/>
	<path fill="#FF0066" d="M7.936,0.251c-4.176,0-7.561,3.384-7.561,7.561c0,4.176,3.385,7.561,7.561,7.561
		c4.177,0,7.562-3.385,7.562-7.561C15.498,3.635,12.111,0.251,7.936,0.251z M8.877,5.862h1.792v0.52H8.877V5.862z M7.796,9.255
		C7.717,9.385,7.619,9.493,7.5,9.584c-0.133,0.102-0.29,0.171-0.472,0.21C6.845,9.832,6.649,9.851,6.436,9.851H4.551V5.667h2.021
		c0.511,0.007,0.872,0.155,1.084,0.446c0.127,0.178,0.191,0.391,0.191,0.639c0,0.256-0.064,0.461-0.193,0.616
		C7.582,7.454,7.477,7.533,7.336,7.607c0.214,0.078,0.375,0.2,0.483,0.369c0.109,0.168,0.164,0.371,0.164,0.612
		C7.983,8.835,7.921,9.059,7.796,9.255L7.796,9.255z M11.32,8.531H9.067c0.013,0.311,0.12,0.528,0.324,0.652
		c0.124,0.078,0.272,0.116,0.445,0.116c0.184,0,0.334-0.046,0.449-0.141c0.064-0.052,0.12-0.122,0.167-0.213h0.826
		c-0.021,0.183-0.121,0.369-0.299,0.559c-0.276,0.3-0.665,0.451-1.164,0.451c-0.412,0-0.775-0.128-1.09-0.381
		C8.409,9.321,8.252,8.907,8.252,8.336c0-0.536,0.142-0.947,0.426-1.234c0.285-0.285,0.652-0.428,1.106-0.428
		c0.27,0,0.512,0.048,0.728,0.145c0.215,0.098,0.394,0.25,0.532,0.459c0.13,0.184,0.211,0.396,0.25,0.64
		C11.314,8.059,11.322,8.265,11.32,8.531L11.32,8.531z"/>
</g>
</svg>
