<?xml version="1.0" encoding="utf-8"?>
<!-- Generator: Adobe Illustrator 16.0.0, SVG Export Plug-In . SVG Version: 6.00 Build 0)  -->
<!DOCTYPE svg PUBLIC "-//W3C//DTD SVG 1.1//EN" "http://www.w3.org/Graphics/SVG/1.1/DTD/svg11.dtd">
<svg version="1.1" id="Layer_1" xmlns="http://www.w3.org/2000/svg" xmlns:xlink="http://www.w3.org/1999/xlink" x="0px" y="0px"
	 width="22.625px" height="22.688px" viewBox="1.188 1.438 22.625 22.688" enable-background="new 1.188 1.438 22.625 22.688"
	 xml:space="preserve">
<g>
	<path fill="#FF0066" d="M12.758,12.724c0.063-0.019,0.125-0.039,0.183-0.054c-0.114-0.256-0.237-0.514-0.372-0.767
		c-2.254,0.675-4.443,0.647-4.642,0.642v0.135c0,1.163,0.443,2.223,1.167,3.025C9.189,15.532,10.433,13.474,12.758,12.724
		L12.758,12.724z"/>
	<path fill="#FF0066" d="M13.218,13.428c-2.548,0.888-3.464,2.656-3.547,2.819c0.763,0.598,1.729,0.956,2.774,0.956
		c0.625,0,1.226-0.131,1.764-0.36c-0.065-0.396-0.332-1.775-0.967-3.427c-0.005,0.004-0.016,0.006-0.026,0.012H13.218z"/>
	<path fill="#FF0066" d="M12.199,11.208c-0.747-1.334-1.557-2.452-1.679-2.613c-1.259,0.595-2.205,1.758-2.499,3.163
		C8.225,11.76,10.089,11.765,12.199,11.208z"/>
	<path fill="#FF0066" d="M15.442,9.3c-0.799-0.704-1.848-1.139-2.996-1.139c-0.364,0-0.722,0.046-1.061,0.125
		c0.126,0.17,0.944,1.29,1.688,2.65C14.682,10.334,15.36,9.42,15.442,9.3z"/>
	<path fill="#FF0066" d="M12.447,1.521c-6.162,0-11.156,4.995-11.156,11.156c0,6.161,4.995,11.157,11.156,11.157
		s11.157-4.994,11.157-11.157C23.604,6.516,18.608,1.521,12.447,1.521z M12.446,17.967c-2.917,0-5.291-2.374-5.291-5.291
		c0-2.915,2.374-5.289,5.291-5.289c2.914,0,5.292,2.374,5.292,5.289C17.738,15.593,15.36,17.967,12.446,17.967z"/>
	<path fill="#FF0066" d="M13.42,11.605c0.104,0.218,0.205,0.438,0.302,0.658c0.033,0.076,0.064,0.156,0.095,0.23
		c1.506-0.189,2.999,0.116,3.143,0.148c-0.001-1.068-0.384-2.048-1.013-2.815C15.849,9.956,15.093,10.924,13.42,11.605z"/>
	<path fill="#FF0066" d="M14.091,13.21c0.594,1.621,0.837,2.944,0.877,3.221c1.013-0.689,1.738-1.771,1.944-3.03
		C16.757,13.35,15.509,12.982,14.091,13.21z"/>
</g>
</svg>
