<?xml version="1.0" encoding="utf-8"?>
<!-- Generator: Adobe Illustrator 16.0.0, SVG Export Plug-In . SVG Version: 6.00 Build 0)  -->
<!DOCTYPE svg PUBLIC "-//W3C//DTD SVG 1.1//EN" "http://www.w3.org/Graphics/SVG/1.1/DTD/svg11.dtd">
<svg version="1.1" id="Layer_1" xmlns="http://www.w3.org/2000/svg" xmlns:xlink="http://www.w3.org/1999/xlink" x="0px" y="0px"
	 width="22.625px" height="22.688px" viewBox="1.188 1.438 22.625 22.688" enable-background="new 1.188 1.438 22.625 22.688"
	 xml:space="preserve">
<g>
	<path fill="#FF0066" d="M12.5,1.583c-6.184,0-11.198,5.013-11.198,11.197c0,6.186,5.014,11.198,11.198,11.198
		c6.185,0,11.198-5.012,11.198-11.198C23.698,6.597,18.685,1.583,12.5,1.583z M6.464,8.347H18.47c0.684,0,1.239,0.483,1.297,1.099
		l-7.325,3.13L5.163,9.464c0.048-0.623,0.608-1.118,1.3-1.118L6.464,8.347z M19.779,16.646c0,0.664-0.587,1.201-1.31,1.201H6.464
		c-0.724,0-1.31-0.537-1.31-1.201v-6.611l7.296,3.117l0.006-0.009l7.323-3.13V16.646z"/>
</g>
</svg>
