<?xml version="1.0" encoding="utf-8"?>
<!-- Generator: Adobe Illustrator 16.0.0, SVG Export Plug-In . SVG Version: 6.00 Build 0)  -->
<!DOCTYPE svg PUBLIC "-//W3C//DTD SVG 1.1//EN" "http://www.w3.org/Graphics/SVG/1.1/DTD/svg11.dtd">
<svg version="1.1" id="Layer_1" xmlns="http://www.w3.org/2000/svg" xmlns:xlink="http://www.w3.org/1999/xlink" x="0px" y="0px"
	 width="22.625px" height="22.688px" viewBox="0 0 22.625 22.688" enable-background="new 0 0 22.625 22.688" xml:space="preserve">
<g>
	<path fill="#FF0066" d="M11.677,11.472c0.061-0.024,0.118-0.04,0.184-0.055c-0.118-0.254-0.242-0.512-0.376-0.76
		c-2.237,0.667-4.417,0.644-4.613,0.636v0.135c0,1.157,0.442,2.212,1.158,3.011C8.125,14.262,9.362,12.218,11.677,11.472
		L11.677,11.472z"/>
	<path fill="#FF0066" d="M12.13,12.171c-2.533,0.886-3.444,2.642-3.525,2.803c0.761,0.596,1.718,0.949,2.76,0.949
		c0.623,0,1.218-0.128,1.749-0.354c-0.061-0.396-0.326-1.768-0.957-3.413C12.153,12.164,12.139,12.164,12.13,12.171L12.13,12.171z"
		/>
	<path fill="#FF0066" d="M11.119,9.961c-0.737-1.326-1.545-2.44-1.668-2.602C8.194,7.954,7.256,9.112,6.964,10.51
		C7.163,10.51,9.021,10.518,11.119,9.961z"/>
	<path fill="#FF0066" d="M14.344,8.066c-0.796-0.699-1.837-1.134-2.979-1.134c-0.361,0-0.718,0.045-1.061,0.126
		c0.127,0.17,0.942,1.284,1.684,2.63C13.586,9.092,14.26,8.181,14.344,8.066z"/>
	<path fill="#FF0066" d="M11.369,0.326c-6.136,0-11.098,4.968-11.098,11.095c0,6.131,4.966,11.104,11.098,11.104
		c6.127,0,11.093-4.973,11.093-11.104C22.462,5.294,17.492,0.326,11.369,0.326z M11.365,16.684c-2.902,0-5.262-2.359-5.262-5.263
		c0-2.902,2.359-5.258,5.262-5.258c2.895,0,5.262,2.365,5.262,5.258C16.627,14.324,14.26,16.684,11.365,16.684z"/>
	<path fill="#FF0066" d="M12.334,10.356c0.1,0.219,0.204,0.439,0.3,0.655c0.034,0.08,0.065,0.16,0.092,0.234
		c1.5-0.192,2.987,0.11,3.128,0.142c0-1.061-0.379-2.038-1.006-2.797C14.748,8.72,13.994,9.68,12.334,10.356z"/>
	<path fill="#FF0066" d="M13.003,11.956c0.588,1.61,0.83,2.925,0.873,3.201c1.003-0.685,1.729-1.76,1.929-3.018
		C15.651,12.091,14.41,11.726,13.003,11.956z"/>
</g>
</svg>
