<?xml version="1.0" encoding="utf-8"?>
<!-- Generator: Adobe Illustrator 16.0.0, SVG Export Plug-In . SVG Version: 6.00 Build 0)  -->
<!DOCTYPE svg PUBLIC "-//W3C//DTD SVG 1.1//EN" "http://www.w3.org/Graphics/SVG/1.1/DTD/svg11.dtd">
<svg version="1.1" id="Layer_1" xmlns="http://www.w3.org/2000/svg" xmlns:xlink="http://www.w3.org/1999/xlink" x="0px" y="0px"
	 width="22.625px" height="22.688px" viewBox="1.188 1.438 22.625 22.688" enable-background="new 1.188 1.438 22.625 22.688"
	 xml:space="preserve">
<path fill="#FF0066" d="M12.5,1.656c-6.145,0-11.125,4.98-11.125,11.125c0,6.145,4.98,11.125,11.125,11.125
	c6.143,0,11.125-4.98,11.125-11.125C23.625,6.637,18.644,1.656,12.5,1.656z M14.938,9.388c-0.456,0-0.946,0-1.18,0
	S13.289,9.63,13.289,9.81c0,0.179,0,1.202,0,1.202s1.458,0,1.646,0c-0.066,0.922-0.202,1.766-0.202,1.766H13.28v5.228h-2.165v-5.228
	h-1.054v-1.76h1.054c0,0,0-1.175,0-1.438c0-0.263-0.054-2.023,2.219-2.023c0.306,0,0.996,0,1.603,0
	C14.938,8.32,14.938,9.147,14.938,9.388L14.938,9.388z"/>
</svg>
