<?xml version="1.0" encoding="utf-8"?>
<!-- Generator: Adobe Illustrator 16.0.0, SVG Export Plug-In . SVG Version: 6.00 Build 0)  -->
<!DOCTYPE svg PUBLIC "-//W3C//DTD SVG 1.1//EN" "http://www.w3.org/Graphics/SVG/1.1/DTD/svg11.dtd">
<svg version="1.1" id="Layer_1" xmlns="http://www.w3.org/2000/svg" xmlns:xlink="http://www.w3.org/1999/xlink" x="0px" y="0px"
	 width="22.625px" height="22.688px" viewBox="1.188 1.438 22.625 22.688" enable-background="new 1.188 1.438 22.625 22.688"
	 xml:space="preserve">
<path fill="#FF0066" d="M12.5,1.631c-6.158,0-11.151,4.992-11.151,11.15c0,6.158,4.992,11.15,11.151,11.15
	c6.158,0,11.15-4.992,11.15-11.15C23.65,6.623,18.658,1.631,12.5,1.631z M9.283,15.288c-1.385,0-2.506-1.123-2.506-2.507
	c0-1.38,1.121-2.504,2.506-2.504c1.375,0,2.497,1.124,2.497,2.504C11.779,14.164,10.657,15.288,9.283,15.288z M15.716,15.288
	c-1.381,0-2.505-1.123-2.505-2.507c0-1.38,1.124-2.504,2.505-2.504c1.388,0,2.505,1.124,2.505,2.504
	C18.222,14.164,17.104,15.288,15.716,15.288z"/>
</svg>
