<?xml version="1.0" encoding="utf-8"?>
<!-- Generator: Adobe Illustrator 16.0.0, SVG Export Plug-In . SVG Version: 6.00 Build 0)  -->
<!DOCTYPE svg PUBLIC "-//W3C//DTD SVG 1.1//EN" "http://www.w3.org/Graphics/SVG/1.1/DTD/svg11.dtd">
<svg version="1.1" id="Layer_1" xmlns="http://www.w3.org/2000/svg" xmlns:xlink="http://www.w3.org/1999/xlink" x="0px" y="0px"
	 width="22.625px" height="22.688px" viewBox="1.188 1.438 22.625 22.688" enable-background="new 1.188 1.438 22.625 22.688"
	 xml:space="preserve">
<path fill="#FF0066" d="M12.479,1.719c-6.11,0-11.063,4.953-11.063,11.062c0,6.11,4.953,11.064,11.063,11.064
	c6.109,0,11.062-4.954,11.062-11.064C23.542,6.671,18.589,1.719,12.479,1.719z M17.295,16.089c0,0.832-0.677,1.506-1.507,1.506H9.17
	c-0.834,0-1.507-0.675-1.507-1.506V12.22h1.959c-0.04,0.183-0.055,0.365-0.055,0.56c0,1.608,1.298,2.908,2.911,2.908
	c1.606,0,2.911-1.3,2.911-2.908c0-0.194-0.018-0.378-0.055-0.56h1.96V16.089z M10.686,12.779c0-0.991,0.804-1.795,1.792-1.795
	c0.991,0,1.789,0.804,1.789,1.795c0,0.995-0.798,1.791-1.789,1.791C11.491,14.57,10.686,13.773,10.686,12.779z M17.295,11.098
	h-2.438c-0.525-0.744-1.399-1.231-2.379-1.231c-0.982,0-1.848,0.487-2.381,1.231H7.663V9.47c0-0.833,0.673-1.502,1.507-1.502h6.617
	c0.831,0,1.507,0.669,1.507,1.502v1.628H17.295z"/>
<path fill="#FF0066" d="M16.258,8.748h-0.809c-0.146,0-0.272,0.119-0.272,0.266v0.807c0,0.153,0.125,0.272,0.272,0.272h0.809
	c0.144,0,0.269-0.12,0.269-0.272V9.014C16.527,8.867,16.403,8.748,16.258,8.748z"/>
</svg>
