<?xml version="1.0" encoding="utf-8"?>
<!-- Generator: Adobe Illustrator 16.0.0, SVG Export Plug-In . SVG Version: 6.00 Build 0)  -->
<!DOCTYPE svg PUBLIC "-//W3C//DTD SVG 1.1//EN" "http://www.w3.org/Graphics/SVG/1.1/DTD/svg11.dtd">
<svg version="1.1" id="Layer_1" xmlns="http://www.w3.org/2000/svg" xmlns:xlink="http://www.w3.org/1999/xlink" x="0px" y="0px"
	 width="25px" height="24.5px" viewBox="0 0.667 25 24.5" enable-background="new 0 0.667 25 24.5" xml:space="preserve">
<g>
	<path fill="#FF0066" d="M15.204,12.071c-0.303,0-0.539,0.086-0.706,0.259c-0.167,0.172-0.272,0.406-0.315,0.7h2.038
		c-0.02-0.314-0.127-0.551-0.314-0.715C15.718,12.153,15.483,12.071,15.204,12.071z"/>
	<path fill="#FF0066" d="M10.887,13.15c-0.146-0.066-0.35-0.101-0.612-0.104H8.769v1.631h1.485c0.265,0,0.473-0.036,0.62-0.107
		c0.269-0.133,0.402-0.387,0.402-0.764C11.276,13.488,11.146,13.27,10.887,13.15L10.887,13.15z"/>
	<path fill="#FF0066" d="M10.905,11.883c0.165-0.102,0.249-0.281,0.249-0.537c0-0.286-0.11-0.474-0.329-0.566
		c-0.189-0.063-0.431-0.095-0.723-0.095H8.77v1.351h1.489C10.522,12.035,10.738,11.984,10.905,11.883L10.905,11.883z"/>
	<path fill="#FF0066" d="M12.5,1.699c-6.108,0-11.06,4.951-11.06,11.06c0,6.108,4.951,11.059,11.06,11.059s11.06-4.951,11.06-11.059
		S18.608,1.699,12.5,1.699z M13.877,9.907h2.622v0.761h-2.622V9.907z M12.295,14.87c-0.115,0.19-0.26,0.35-0.434,0.481
		c-0.194,0.15-0.424,0.251-0.69,0.307c-0.266,0.056-0.554,0.083-0.865,0.083H7.549v-6.12h2.957c0.747,0.011,1.275,0.228,1.586,0.653
		c0.186,0.26,0.28,0.571,0.28,0.934c0,0.374-0.094,0.674-0.283,0.902c-0.106,0.127-0.261,0.243-0.467,0.348
		c0.313,0.114,0.548,0.294,0.707,0.54s0.239,0.545,0.239,0.897C12.568,14.257,12.478,14.583,12.295,14.87L12.295,14.87z
		 M17.45,13.811h-3.296c0.019,0.454,0.175,0.772,0.474,0.955c0.181,0.114,0.397,0.17,0.652,0.17c0.269,0,0.488-0.069,0.656-0.207
		c0.093-0.075,0.175-0.179,0.244-0.312h1.208c-0.032,0.268-0.178,0.541-0.439,0.818c-0.404,0.439-0.972,0.66-1.702,0.66
		c-0.602,0-1.134-0.187-1.594-0.557c-0.461-0.371-0.69-0.976-0.69-1.812c0-0.785,0.207-1.386,0.622-1.804
		c0.417-0.418,0.955-0.627,1.618-0.627c0.395,0,0.749,0.07,1.065,0.212c0.315,0.142,0.576,0.365,0.78,0.67
		c0.188,0.269,0.308,0.581,0.363,0.936C17.442,13.121,17.454,13.421,17.45,13.811L17.45,13.811z"/>
</g>
</svg>
