<?xml version="1.0" encoding="utf-8"?>
<!-- Generator: Adobe Illustrator 16.0.0, SVG Export Plug-In . SVG Version: 6.00 Build 0)  -->
<!DOCTYPE svg PUBLIC "-//W3C//DTD SVG 1.1//EN" "http://www.w3.org/Graphics/SVG/1.1/DTD/svg11.dtd">
<svg version="1.1" id="Layer_1" xmlns="http://www.w3.org/2000/svg" xmlns:xlink="http://www.w3.org/1999/xlink" x="0px" y="0px"
	 width="22.625px" height="22.688px" viewBox="1.188 1.438 22.625 22.688" enable-background="new 1.188 1.438 22.625 22.688"
	 xml:space="preserve">
<path fill="#FF0066" d="M12.5,1.506c-6.145,0-11.125,4.98-11.125,11.125c0,6.145,4.98,11.125,11.125,11.125
	s11.125-4.98,11.125-11.125C23.625,6.486,18.645,1.506,12.5,1.506z M15.06,12.423h-1.952v1.787c0,0.451-0.005,0.714,0.042,0.842
	c0.047,0.126,0.165,0.26,0.299,0.337c0.167,0.102,0.37,0.154,0.588,0.154c0.395,0,0.631-0.052,1.023-0.307v1.172
	c-0.335,0.157-0.628,0.25-0.896,0.31c-0.268,0.066-0.562,0.095-0.875,0.095c-0.358,0-0.57-0.044-0.84-0.134
	c-0.278-0.09-0.51-0.22-0.704-0.387c-0.197-0.167-0.326-0.344-0.403-0.532c-0.077-0.187-0.113-0.46-0.113-0.819v-2.735h-1.046
	v-1.105c0.309-0.1,0.65-0.243,0.871-0.428c0.212-0.188,0.394-0.411,0.521-0.673c0.133-0.258,0.225-0.591,0.276-0.992h1.257v1.952
	h1.952L15.06,12.423L15.06,12.423z"/>
</svg>
