<?xml version="1.0" encoding="utf-8"?>
<!-- Generator: Adobe Illustrator 16.0.0, SVG Export Plug-In . SVG Version: 6.00 Build 0)  -->
<!DOCTYPE svg PUBLIC "-//W3C//DTD SVG 1.1//EN" "http://www.w3.org/Graphics/SVG/1.1/DTD/svg11.dtd">
<svg version="1.1" id="Layer_1" xmlns="http://www.w3.org/2000/svg" xmlns:xlink="http://www.w3.org/1999/xlink" x="0px" y="0px"
	 width="22.625px" height="22.688px" viewBox="1.188 1.438 22.625 22.688" enable-background="new 1.188 1.438 22.625 22.688"
	 xml:space="preserve">
<path fill="#FF0066" d="M12.535,1.537c-6.191,0-11.211,5.019-11.211,11.21c0,6.193,5.019,11.211,11.211,11.211
	c6.191,0,11.209-5.019,11.209-11.211C23.744,6.556,18.727,1.537,12.535,1.537z M16.897,10.582c0.006,0.099,0.008,0.197,0.008,0.301
	c0,3.078-2.343,6.628-6.628,6.628c-1.32,0-2.542-0.38-3.574-1.045c0.183,0.023,0.365,0.032,0.556,0.032
	c1.09,0,2.096-0.373,2.889-0.994c-1.019-0.021-1.875-0.7-2.176-1.623c0.142,0.031,0.292,0.041,0.441,0.041
	c0.214,0,0.421-0.025,0.612-0.079c-1.058-0.216-1.866-1.156-1.866-2.288v-0.025c0.311,0.172,0.678,0.28,1.053,0.288
	c-0.62-0.415-1.036-1.13-1.036-1.937c0-0.429,0.119-0.828,0.319-1.177c1.151,1.414,2.864,2.342,4.801,2.437
	c-0.038-0.169-0.054-0.346-0.054-0.531c0-1.283,1.039-2.331,2.328-2.331c0.665,0,1.274,0.283,1.703,0.737
	C16.8,8.91,17.299,8.72,17.749,8.452c-0.173,0.545-0.543,1-1.025,1.288c0.469-0.061,0.919-0.182,1.342-0.369
	C17.748,9.843,17.36,10.252,16.897,10.582L16.897,10.582z"/>
</svg>
