<?xml version="1.0" encoding="utf-8"?>
<!-- Generator: Adobe Illustrator 16.0.0, SVG Export Plug-In . SVG Version: 6.00 Build 0)  -->
<!DOCTYPE svg PUBLIC "-//W3C//DTD SVG 1.1//EN" "http://www.w3.org/Graphics/SVG/1.1/DTD/svg11.dtd">
<svg version="1.1" id="Layer_1" xmlns="http://www.w3.org/2000/svg" xmlns:xlink="http://www.w3.org/1999/xlink" x="0px" y="0px"
	 width="36px" height="36px" viewBox="0 0 36 36" enable-background="new 0 0 36 36" xml:space="preserve">
<g id="Layer_1_1_">
	<path fill="#FFFFFF" d="M18.354,17.984c0.092-0.028,0.182-0.056,0.266-0.078c-0.167-0.372-0.345-0.746-0.541-1.114
		c-3.273,0.98-6.453,0.939-6.741,0.933v0.197c0,1.688,0.642,3.227,1.693,4.393C13.171,22.061,14.977,19.074,18.354,17.984
		L18.354,17.984z"/>
	<path fill="#FFFFFF" d="M19.021,19.007c-3.702,1.289-5.03,3.857-5.149,4.093c1.108,0.869,2.51,1.392,4.028,1.392
		c0.909,0,1.782-0.19,2.563-0.523c-0.095-0.571-0.482-2.575-1.404-4.976C19.05,18.996,19.035,19,19.02,19.008L19.021,19.007
		L19.021,19.007z"/>
	<path fill="#FFFFFF" d="M17.543,15.783c-1.086-1.938-2.262-3.561-2.439-3.795c-1.829,0.864-3.203,2.553-3.629,4.593
		C11.77,16.584,14.477,16.591,17.543,15.783z"/>
	<path fill="#FFFFFF" d="M22.252,13.011c-1.16-1.021-2.684-1.653-4.351-1.653c-0.529,0-1.048,0.067-1.541,0.181
		c0.184,0.247,1.372,1.874,2.453,3.849C21.148,14.512,22.133,13.186,22.252,13.011z"/>
	<path fill="#FFFFFF" d="M17.902,1.713c-8.949,0-16.203,7.254-16.203,16.203c0,8.948,7.254,16.203,16.203,16.203
		c8.95,0,16.204-7.254,16.204-16.203S26.852,1.713,17.902,1.713z M17.901,25.6c-4.237,0-7.684-3.449-7.684-7.686
		c0-4.233,3.447-7.681,7.684-7.681c4.232,0,7.686,3.448,7.686,7.681C25.587,22.15,22.133,25.6,17.901,25.6z"/>
	<path fill="#FFFFFF" d="M19.316,16.36c0.147,0.315,0.295,0.635,0.438,0.955c0.047,0.11,0.094,0.226,0.139,0.334
		c2.188-0.275,4.354,0.168,4.562,0.215c-0.003-1.552-0.559-2.975-1.471-4.088C22.844,13.964,21.745,15.37,19.316,16.36z"/>
	<path fill="#FFFFFF" d="M20.289,18.689c0.863,2.354,1.216,4.273,1.275,4.678c1.471-1,2.521-2.573,2.822-4.401
		C24.161,18.893,22.35,18.36,20.289,18.689z"/>
</g>
<g id="Layer_2">
</g>
<g id="Layer_3">
</g>
</svg>
