<?xml version="1.0" encoding="utf-8"?>
<!-- Generator: Adobe Illustrator 16.0.0, SVG Export Plug-In . SVG Version: 6.00 Build 0)  -->
<!DOCTYPE svg PUBLIC "-//W3C//DTD SVG 1.1//EN" "http://www.w3.org/Graphics/SVG/1.1/DTD/svg11.dtd">
<svg version="1.1" id="Layer_1" xmlns="http://www.w3.org/2000/svg" xmlns:xlink="http://www.w3.org/1999/xlink" x="0px" y="0px"
	 width="36px" height="36px" viewBox="0 0 36 36" enable-background="new 0 0 36 36" xml:space="preserve">
<path fill="#FFFFFF" d="M17.903,1.067c-8.949,0-16.204,7.254-16.204,16.203c0,8.949,7.254,16.203,16.204,16.203
	c8.949,0,16.203-7.254,16.203-16.203C34.105,8.321,26.852,1.067,17.903,1.067z M13.227,20.911c-2.012,0-3.642-1.631-3.642-3.642
	c0-2.007,1.63-3.639,3.642-3.639c1.998,0,3.628,1.632,3.628,3.639C16.855,19.279,15.225,20.911,13.227,20.911z M22.576,20.911
	c-2.008,0-3.641-1.631-3.641-3.642c0-2.007,1.633-3.639,3.641-3.639c2.018,0,3.642,1.632,3.642,3.639
	C26.218,19.279,24.594,20.911,22.576,20.911z"/>
</svg>
